<svg xmlns="http://www.w3.org/2000/svg" width="480" height="600" viewBox="0 0 480 600" fill="none" role="img" aria-label="Illustrated portrait of a HorecaPass recruiter">
  <rect width="480" height="600" fill="#F6EFE5"/>
  <circle cx="240" cy="230" r="190" fill="#F0E2D1"/>

  <!-- shoulders / blazer -->
  <path d="M60 600c0-108 80-176 180-176s180 68 180 176v0H60v0z" fill="#2A211B"/>
  <path d="M60 600c0-70 36-124 88-152l40 96-30 56H60z" fill="#342821"/>
  <path d="M420 600c0-70-36-124-88-152l-40 96 30 56h98z" fill="#342821"/>
  <!-- shirt / collar -->
  <path d="M196 440l44 46 44-46-10 160h-68z" fill="#FBF7F1"/>
  <path d="M196 440l44 46-26 24-30-50z" fill="#EFE6D8"/>
  <path d="M284 440l-44 46 26 24 30-50z" fill="#EFE6D8"/>
  <!-- tie -->
  <path d="M226 460l14 14 14-14-6 30 6 96-14 18-14-18 6-96z" fill="#7A5230"/>

  <!-- neck -->
  <rect x="212" y="372" width="56" height="70" rx="18" fill="#C98F62"/>

  <!-- hair back mass, short -->
  <path d="M240 190c-58 0-100 46-100 104 0 26 2 48 6 64 4-18 6-40 10-56 8 34 16 48 16 48s-8-44 2-70c8 18 26 28 66 28s58-10 66-28c10 26 2 70 2 70s8-14 16-48c4 16 6 38 10 56 4-16 6-38 6-64 0-58-42-104-100-104z" fill="#241711"/>

  <!-- head -->
  <ellipse cx="240" cy="306" rx="86" ry="94" fill="#D9A679"/>

  <!-- short fringe (wide ellipse first closes any seam against the hair mass) -->
  <ellipse cx="240" cy="250" rx="100" ry="34" fill="#241711"/>
  <path d="M160 266c18-30 48-46 80-46s62 16 80 46c-14-10-46-16-80-16s-66 6-80 16z" fill="#241711"/>

  <!-- ears -->
  <circle cx="156" cy="308" r="11" fill="#D9A679"/>
  <circle cx="324" cy="308" r="11" fill="#D9A679"/>

  <!-- face -->
  <circle cx="208" cy="302" r="7" fill="#241711"/>
  <circle cx="272" cy="302" r="7" fill="#241711"/>
  <path d="M199 286q9-9 18 0" stroke="#241711" stroke-width="4" stroke-linecap="round" fill="none"/>
  <path d="M263 286q9-9 18 0" stroke="#241711" stroke-width="4" stroke-linecap="round" fill="none"/>
  <path d="M212 340q28 22 56 0" stroke="#8A5A36" stroke-width="6" stroke-linecap="round" fill="none"/>
  <path d="M206 356q34 14 68 0" stroke="#241711" stroke-width="4" stroke-linecap="round" fill="none" opacity="0.5"/>
  <circle cx="188" cy="326" r="10" fill="#C97A52" opacity="0.3"/>
  <circle cx="292" cy="326" r="10" fill="#C97A52" opacity="0.3"/>
</svg>
